<mxfile host="app.diagrams.net" modified="2023-06-08T06:31:15.388Z" agent="Mozilla/5.0 (Windows NT 10.0; Win64; x64) AppleWebKit/537.36 (KHTML, like Gecko) Chrome/114.0.0.0 Safari/537.36 Edg/114.0.1823.41" version="21.3.7" etag="RpvQqh5EiPtRXIdh6uoI" type="github">
  <diagram name="페이지-1" id="20wCLEbj27nV1Glt80qj">
    <mxGraphModel>
      <root>
        <mxCell id="0" />
        <mxCell id="1" parent="0" />
      </root>
    </mxGraphModel>
  </diagram>
</mxfile>
